<svg width="18" height="18" viewBox="0 0 18 18" fill="none" xmlns="http://www.w3.org/2000/svg">
<path fill-rule="evenodd" clip-rule="evenodd" d="M14.3477 2.46475L16.1903 3.72614L17.9934 2.52221L18 0.0487386L14.351 2.46475H14.3477ZM3.69291 15.5736L1.85663 14.3225L0 15.5758L0.0186926 18L3.69291 15.5736ZM10.6662 4.87426L12.4654 6.08358L3.91528 11.8635L9.19855 15.4264L11.6796 13.7463L9.75254 12.4707L14.201 9.49168L17.9232 11.9589L8.93063 17.9478L0.0578763 12.0007L10.6662 4.87426ZM7.29817 13.0737L5.49831 11.8645L14.0487 6.08428L8.76531 2.52152L6.28408 4.20161L8.21132 5.4774L3.76324 8.45612L0.0409848 5.98902L9.00138 0L17.8973 5.97337L7.29817 13.0737Z" fill="#465EFF"/>
</svg>
